<svg xmlns="http://www.w3.org/2000/svg" viewBox="0 0 240 240"><defs><linearGradient id="g" x1="0" y1="0" x2="1" y2="1"><stop stop-color="#eee6ff"/><stop offset="1" stop-color="#8b62ef"/></linearGradient></defs><path fill="#07111f" d="M83 218l9-53-19-48 25-29 8-42 28-20 27 20 9 42 25 29-19 48 9 53h-38l-8-47h-9l-8 47z"/><circle cx="120" cy="62" r="31" fill="url(#g)" stroke="#07111f" stroke-width="10"/><path d="M89 91h62l22 36-23 49H90l-23-49z" fill="#986dff" stroke="#07111f" stroke-width="9"/><path d="M101 104h38v50h-38z" fill="#ddd0ff"/><text x="120" y="141" text-anchor="middle" font-family="sans-serif" font-size="37" font-weight="900" fill="#3d247e">L</text><path d="M75 110L35 142l20 17 39-25M165 111l39 31-20 18-39-25" fill="#b49bff" stroke="#07111f" stroke-width="8" stroke-linejoin="round"/><path d="M96 60c8-22 42-25 51-5 8 18-12 33-27 24-12-8-5-23 6-22 7 1 8 9 4 12" fill="none" stroke="#fff" stroke-width="5" stroke-linecap="round"/></svg>